<?xml version="1.0" encoding="utf-8"?>
<!-- Generator: Adobe Illustrator 21.0.0, SVG Export Plug-In . SVG Version: 6.00 Build 0)  -->
<svg version="1.1" id="Capa_1" xmlns="http://www.w3.org/2000/svg" xmlns:xlink="http://www.w3.org/1999/xlink" x="0px" y="0px"
	 viewBox="0 0 45.5 20.5" style="enable-background:new 0 0 45.5 20.5;" xml:space="preserve">
<style type="text/css">
	.st0{fill:#303030;}
	.st1{fill:#FFFFFF;}
	.st2{fill:none;stroke:#303030;stroke-linecap:round;stroke-miterlimit:10;}
	.st3{fill:none;stroke:#303030;stroke-width:0.25;stroke-linecap:round;stroke-miterlimit:10;}
</style>
<g>
	<g>
		<g>
			<g>
				<path class="st0" d="M33.1,19.3c-0.2,0-0.3-0.1-0.4-0.2l-5.7-7.2c-0.1-0.1-0.2-0.3-0.1-0.5l0-0.2l0.2-0.1
					c1.3-0.4,2.4-0.8,3.4-1.2c0.4-0.2,0.9-0.4,1.3-0.5l0,0L35,8.3h0c0.2,0,0.6-0.1,0.9,0.1C36,8.5,36,8.6,36,8.8l0,0l-2.3,10
					c0,0.2-0.2,0.4-0.4,0.4C33.2,19.3,33.2,19.3,33.1,19.3z M27.6,11.6l5.5,7l2.2-9.6c-0.1,0-0.2,0-0.2,0l-0.1,0L32,10
					c-0.4,0.2-0.8,0.3-1.2,0.5C29.8,10.9,28.8,11.2,27.6,11.6z"/>
			</g>
		</g>
		<g>
			<g>
				<path class="st1" d="M43.5,7.6c0.5,0,0.9-0.4,0.9-0.9S44,5.9,43.5,5.9c0,0-4.6-0.9-12.9,2.6S18,10.9,18,10.9v1.8
					c0,0,4.4,1,12.6-2.5c6-2.5,10.1-2.7,11.9-2.6C43.2,7.6,43.5,7.6,43.5,7.6z"/>
			</g>
			<g>
				<path class="st0" d="M19.7,13.1c-1.1,0-1.7-0.1-1.8-0.1l-0.2-0.1v-2.4l0.4,0.1c0,0,1.1,0.2,3.2,0c1.9-0.2,5.1-0.8,9.3-2.5
					c8-3.4,12.6-2.7,13-2.6c0.6,0,1.1,0.5,1.1,1.2c0,0.7-0.5,1.2-1.2,1.2l-0.1,0c0,0-0.3-0.1-0.9-0.1c-1.8-0.1-5.8,0.1-11.8,2.6
					C25.4,12.7,21.7,13.1,19.7,13.1z M18.3,12.4c0.4,0.1,1.4,0.1,2.9,0c1.9-0.2,5.1-0.8,9.3-2.5c6.1-2.5,10.1-2.8,12-2.7
					c0.6,0,0.9,0.1,1,0.1C43.8,7.3,44,7,44,6.7c0-0.3-0.2-0.5-0.5-0.5l-0.1,0c0,0-1.2-0.2-3.3,0c-2,0.2-5.2,0.8-9.4,2.5
					c-7,2.9-11.2,2.7-12.4,2.6V12.4z"/>
			</g>
		</g>
		<g>
			<g>
				<g>
					<path class="st0" d="M26,11.1c-0.3,0-0.6,0.1-0.9,0.2s-0.6,0.2-0.9,0.3c0.3-0.2,0.5-0.3,0.8-0.4C25.4,11.1,25.7,11.1,26,11.1z"
						/>
				</g>
			</g>
		</g>
		<g>
			<g>
				<g>
					<path class="st0" d="M42.7,6.8c-0.3,0-0.6,0-0.9,0c-0.3,0-0.6,0-0.9,0.1c0.3-0.1,0.6-0.1,0.9-0.1C42.1,6.7,42.4,6.7,42.7,6.8z"
						/>
				</g>
			</g>
		</g>
		<g>
			<g>
				<g>
					<path class="st0" d="M26.2,10.7c0.1,0,0.2,0,0.4-0.1c0.1,0,0.2-0.1,0.3-0.2c-0.1,0.1-0.2,0.2-0.3,0.3
						C26.5,10.8,26.3,10.8,26.2,10.7z"/>
				</g>
			</g>
		</g>
		<g>
			<g>
				<ellipse transform="matrix(0.978 -0.2087 0.2087 0.978 -1.527 6.1275)" class="st0" cx="28.3" cy="10.3" rx="0.3" ry="0.1"/>
			</g>
		</g>
		<g>
			<g>
				<g>
					<path class="st0" d="M28.8,10.3c-0.2,0.1-0.3,0.1-0.5,0.2c-0.1,0-0.2,0-0.3,0c-0.1,0-0.2,0-0.3,0c0.1,0,0.2,0,0.3,0
						c0.1,0,0.2,0,0.3-0.1c0.1,0,0.2,0,0.3-0.1L28.8,10.3z"/>
				</g>
			</g>
		</g>
		<g>
			<g>
				<g>
					<path class="st0" d="M28,10.2c0.1-0.1,0.2-0.1,0.3-0.1c0.1,0,0.2,0,0.3,0c-0.1,0-0.1,0-0.2,0c0,0-0.1,0-0.2,0
						C28.2,10.2,28.1,10.2,28,10.2z"/>
				</g>
			</g>
		</g>
		<g>
			<g>
				<g>
					<path class="st0" d="M33.9,7.3c0.3-0.1,0.6-0.3,1-0.4c0.2,0,0.3-0.1,0.5-0.1c0.2,0,0.3,0,0.5,0c-0.2,0-0.3,0-0.5,0
						C35.2,6.9,35,7,34.8,7c-0.2,0-0.3,0.1-0.5,0.1C34.2,7.2,34,7.2,33.9,7.3z"/>
				</g>
			</g>
		</g>
		<g>
			<g>
				<g>
					<path class="st0" d="M35.4,7.4c-0.2,0.1-0.4,0.2-0.6,0.2c-0.1,0-0.2,0-0.3,0.1c-0.1,0-0.2,0-0.3,0c0.1,0,0.2,0,0.3,0
						c0.1,0,0.2,0,0.3-0.1c0.1,0,0.2-0.1,0.3-0.1C35.2,7.5,35.3,7.5,35.4,7.4z"/>
				</g>
			</g>
		</g>
		<g>
			<g>
				<g>
					<path class="st0" d="M32.5,8.5c0.2-0.1,0.4-0.2,0.6-0.3c0.1,0,0.2-0.1,0.3-0.1c0.1,0,0.2,0,0.3,0c-0.1,0-0.2,0-0.3,0
						c-0.1,0-0.2,0.1-0.3,0.1c-0.1,0-0.2,0.1-0.3,0.1C32.6,8.4,32.5,8.5,32.5,8.5z"/>
				</g>
			</g>
		</g>
		<g>
			<g>
				<g>
					<path class="st0" d="M42.1,6.4c-0.2,0.1-0.4,0.1-0.6,0.2c-0.1,0-0.2,0-0.3,0c-0.1,0-0.2,0-0.3-0.1c0.1,0,0.2,0,0.3,0
						c0.1,0,0.2,0,0.3,0c0.1,0,0.2,0,0.3-0.1C41.9,6.4,42,6.4,42.1,6.4z"/>
				</g>
			</g>
		</g>
		<g>
			<g>
				<ellipse transform="matrix(0.9639 -0.2664 0.2664 0.9639 -0.4836 10.4272)" class="st0" cx="38.2" cy="7" rx="0.2" ry="0"/>
			</g>
		</g>
		<g>
			<g>
				<g>
					<path class="st0" d="M32.5,9.1c0-0.1,0-0.2,0-0.2c0.1-0.1,0.1-0.1,0.2-0.1c0.2-0.1,0.3-0.1,0.5-0.1c0.2,0,0.3-0.1,0.5-0.1
						c0.2,0,0.3-0.1,0.5-0.1c-0.2,0-0.3,0.1-0.5,0.2c-0.2,0-0.3,0.1-0.5,0.1c-0.2,0-0.4,0-0.5,0.1c-0.1,0-0.2,0.1-0.2,0.1
						C32.4,8.9,32.4,9,32.5,9.1z"/>
				</g>
			</g>
		</g>
		<g>
			<g>
				<g>
					<path class="st0" d="M34.8,7.5c0.2-0.2,0.4-0.3,0.6-0.3s0.5-0.1,0.7-0.1s0.5,0,0.7,0c0.1,0,0.2,0,0.4,0c0.1,0,0.2,0,0.3-0.1
						c-0.1,0.1-0.2,0.1-0.3,0.1c-0.1,0-0.2,0-0.4,0c-0.2,0-0.5,0-0.7,0s-0.5,0-0.7,0.1c-0.1,0-0.2,0.1-0.3,0.1
						C35,7.4,34.9,7.5,34.8,7.5z"/>
				</g>
			</g>
		</g>
		<g>
			<g>
				<g>
					<path class="st0" d="M29.4,9.6c0.2-0.1,0.4-0.2,0.6-0.3c0.2-0.1,0.4-0.2,0.6-0.2c-0.2,0.1-0.4,0.2-0.6,0.3
						C29.8,9.4,29.6,9.5,29.4,9.6z"/>
				</g>
			</g>
		</g>
		<g>
			<g>
				<g>
					<path class="st0" d="M29.2,10.1l0.5-0.2c0.1,0,0.2-0.1,0.3-0.1c0.1,0,0.2-0.1,0.3-0.1c-0.1,0.1-0.3,0.2-0.5,0.3
						C29.6,10,29.4,10,29.2,10.1z"/>
				</g>
			</g>
		</g>
		<g>
			<g>
				<path class="st2" d="M26.9,11"/>
			</g>
		</g>
		<g>
			<g>
				<g>
					<path class="st0" d="M28,9.9c-0.2,0-0.3,0.1-0.5,0.2c0,0,0.1-0.1,0.1-0.1c0,0,0.1,0,0.1-0.1C27.8,10,27.9,9.9,28,9.9z"/>
				</g>
			</g>
		</g>
	</g>
	<g>
		<g>
			<g>
				<path class="st1" d="M24.5,9.9H1.2v2c0,0.4,0.4,0.8,0.8,0.8h21.8c0.4,0,0.8-0.4,0.8-0.8V9.9z"/>
			</g>
			<g>
				<path class="st0" d="M23.7,13H1.9c-0.6,0-1.1-0.5-1.1-1.1V9.6h24v2.3C24.8,12.5,24.3,13,23.7,13z M1.5,10.3v1.7
					c0,0.2,0.2,0.4,0.4,0.4h21.8c0.2,0,0.4-0.2,0.4-0.4v-1.7H1.5z"/>
			</g>
		</g>
		<g>
			<g>
				<rect x="1.2" y="4.4" class="st1" width="23.3" height="2.8"/>
			</g>
			<g>
				<path class="st0" d="M24.8,7.5h-24V4.1h24V7.5z M1.5,6.8h22.7V4.7H1.5V6.8z"/>
			</g>
		</g>
		<g>
			<g>
				<path class="st1" d="M23.9,1.6H1.7c-0.3,0-0.6,0.3-0.6,0.6v2.2h23.3V2.2C24.5,1.9,24.2,1.6,23.9,1.6z"/>
			</g>
			<g>
				<path class="st0" d="M24.8,4.7h-24V2.2c0-0.5,0.4-0.9,0.9-0.9h22.2c0.5,0,0.9,0.4,0.9,0.9V4.7z M1.5,4h22.7V2.2
					c0-0.1-0.1-0.3-0.3-0.3H1.7C1.6,1.9,1.5,2,1.5,2.2V4z"/>
			</g>
		</g>
		<g>
			<g>
				<rect x="1.2" y="7.2" class="st1" width="23.3" height="2.8"/>
			</g>
			<g>
				<path class="st0" d="M24.8,10.3h-24V6.8h24V10.3z M1.5,9.6h22.7V7.5H1.5V9.6z"/>
			</g>
		</g>
	</g>
	<g>
		<g>
			<circle class="st0" cx="26.8" cy="10.7" r="0.3"/>
		</g>
	</g>
	<g>
		<g>
			<circle class="st0" cx="35.8" cy="7.5" r="0.3"/>
		</g>
	</g>
	<g>
		<g>
			<circle class="st0" cx="31" cy="9.2" r="0.3"/>
		</g>
	</g>
	<g>
		<g>
			<circle class="st0" cx="43.4" cy="6.7" r="0.3"/>
		</g>
	</g>
	<g>
		<g>
			<circle class="st0" cx="39.6" cy="6.8" r="0.3"/>
		</g>
	</g>
	<g>
		<g>
			<g>
				<g>
					<path class="st0" d="M5.3,2.5c0.3,0,0.5,0,0.7,0c0.3,0,0.5,0,0.7,0c-0.3,0-0.5,0-0.7,0C5.8,2.5,5.6,2.5,5.3,2.5z"/>
				</g>
			</g>
		</g>
		<g>
			<g>
				<g>
					<path class="st0" d="M1.9,6.3c0.3,0,0.5,0,0.7,0s0.5,0,0.7,0c-0.3,0-0.5,0-0.7,0S2.1,6.3,1.9,6.3z"/>
				</g>
			</g>
		</g>
		<g>
			<g>
				<g>
					<path class="st0" d="M6.7,3.6c0.2,0,0.4,0,0.6,0c0.2,0,0.4,0,0.6,0c-0.2,0-0.4,0.1-0.6,0.1C7.1,3.7,6.9,3.7,6.7,3.6z"/>
				</g>
			</g>
		</g>
		<g>
			<g>
				<g>
					<path class="st0" d="M1.7,2.5c0.2,0,0.4,0,0.6,0c0.2,0,0.4,0,0.6,0c-0.2,0-0.4,0.1-0.6,0.1C2.1,2.5,1.9,2.5,1.7,2.5z"/>
				</g>
			</g>
		</g>
		<g>
			<g>
				<g>
					<path class="st0" d="M8.9,3.7c0.5,0,1.1,0,1.6,0c0.5,0,1.1,0,1.6,0c-0.5,0.1-1.1,0.1-1.6,0.1C10,3.7,9.5,3.7,8.9,3.7z"/>
				</g>
			</g>
		</g>
		<g>
			<g>
				<g>
					<path class="st0" d="M10.8,2.6c0.4,0,0.7,0,1.1,0s0.7,0,1.1-0.1c-0.4,0.1-0.7,0.2-1.1,0.2C11.5,2.7,11.1,2.6,10.8,2.6z"/>
				</g>
			</g>
		</g>
		<g>
			<g>
				<g>
					<path class="st0" d="M15.8,2.5c0.5,0,1,0,1.5,0s1,0,1.5,0c-0.5,0-1,0-1.5,0C16.7,2.5,16.3,2.5,15.8,2.5z"/>
				</g>
			</g>
		</g>
		<g>
			<g>
				<g>
					<path class="st0" d="M20.2,3c0.5,0,1,0,1.5,0c0.5,0,1,0,1.5,0c-0.5,0-1,0-1.5,0C21.1,3,20.7,3,20.2,3z"/>
				</g>
			</g>
		</g>
		<g>
			<g>
				<g>
					<path class="st0" d="M10.4,5.1c0.5,0,1,0,1.5,0s1,0,1.5,0c-0.5,0-1,0-1.5,0C11.4,5.2,10.9,5.2,10.4,5.1z"/>
				</g>
			</g>
		</g>
		<g>
			<g>
				<g>
					<path class="st0" d="M17.4,3.5c0.1,0,0.3,0,0.4,0c0.1,0,0.3,0,0.4,0c-0.1,0-0.3,0.1-0.4,0.1C17.6,3.6,17.5,3.5,17.4,3.5z"/>
				</g>
			</g>
		</g>
		<g>
			<g>
				<g>
					<path class="st0" d="M23.7,2.4c0.1,0,0.3,0,0.4,0c0.1,0,0.3,0,0.4,0c-0.1,0-0.3,0.1-0.4,0.1C23.9,2.4,23.8,2.4,23.7,2.4z"/>
				</g>
			</g>
		</g>
		<g>
			<g>
				<g>
					<path class="st0" d="M15.8,3.5c-0.3,0-0.6,0-1,0l-0.5,0c-0.1,0-0.2,0-0.2,0c0,0,0,0,0,0c0,0,0,0,0,0c0,0,0,0,0,0c0,0,0,0,0,0
						l0.1,0c0,0-0.1,0-0.1,0c0,0,0,0-0.1,0c0,0,0,0,0,0c0,0,0,0,0,0c0,0,0,0,0,0c0.1,0,0.2,0,0.2,0c0.2,0,0.3,0,0.5,0
						c0.2,0,0.3,0,0.5,0C15.4,3.4,15.6,3.4,15.8,3.5z"/>
				</g>
			</g>
		</g>
		<g>
			<g>
				<g>
					<path class="st0" d="M20.2,6.3c-0.3,0-0.6,0-0.9,0s-0.6,0-0.9,0.1c0.3-0.1,0.6-0.2,0.9-0.2C19.6,6.2,19.9,6.2,20.2,6.3z"/>
				</g>
			</g>
		</g>
		<g>
			<g>
				<g>
					<path class="st0" d="M21.8,5.3c-0.3,0-0.6,0-0.9,0c-0.3,0-0.6,0-0.9,0.1c0.3-0.1,0.6-0.2,0.9-0.2C21.2,5.2,21.5,5.2,21.8,5.3z"
						/>
				</g>
			</g>
		</g>
		<g>
			<g>
				<g>
					<path class="st0" d="M24,5.4c-0.3,0-0.6,0-0.9,0s-0.6,0-0.9,0.1c0.3-0.1,0.6-0.2,0.9-0.2C23.4,5.3,23.7,5.3,24,5.4z"/>
				</g>
			</g>
		</g>
		<g>
			<g>
				<g>
					<path class="st0" d="M21.9,8.9c0.3,0,0.6,0,0.9,0c0.3,0,0.6,0,0.9-0.1C23.4,8.9,23.1,9,22.8,9C22.5,9,22.2,9,21.9,8.9z"/>
				</g>
			</g>
		</g>
		<g>
			<g>
				<g>
					<path class="st0" d="M18.4,5.4c-0.4,0.1-0.7,0.1-1.1,0.1c-0.4,0-0.7-0.1-1.1-0.2c0.4,0,0.7,0.1,1.1,0.1
						C17.7,5.4,18.1,5.4,18.4,5.4z"/>
				</g>
			</g>
		</g>
		<g>
			<g>
				<g>
					<path class="st0" d="M17.1,6.6c-0.4,0.1-0.7,0.1-1.1,0.1c-0.4,0-0.7-0.1-1.1-0.2c0.4,0,0.7,0.1,1.1,0.1
						C16.4,6.6,16.8,6.6,17.1,6.6z"/>
				</g>
			</g>
		</g>
		<g>
			<g>
				<g>
					<path class="st0" d="M6,6.1c0.2,0,0.4,0,0.6,0c0.2,0,0.4,0,0.6,0c-0.2,0-0.4,0-0.6,0C6.5,6.1,6.2,6.1,6,6.1z"/>
				</g>
			</g>
		</g>
		<g>
			<g>
				<g>
					<path class="st0" d="M5.3,8.3c0.4,0,0.7,0,1.1,0c0.4,0,0.7,0,1.1,0c-0.4,0-0.7,0-1.1,0C6,8.3,5.7,8.3,5.3,8.3z"/>
				</g>
			</g>
		</g>
		<g>
			<g>
				<g>
					<path class="st0" d="M1.7,11.3c0.4,0,0.7,0,1.1,0c0.4,0,0.7,0,1.1,0c-0.4,0-0.7,0-1.1,0C2.5,11.4,2.1,11.4,1.7,11.3z"/>
				</g>
			</g>
		</g>
		<g>
			<g>
				<g>
					<path class="st0" d="M17.1,8.1C17.6,8,18.1,8,18.5,8C19,8,19.5,8,20,8.1c-0.5,0-0.9,0-1.4,0C18.1,8.1,17.6,8.1,17.1,8.1z"/>
				</g>
			</g>
		</g>
		<g>
			<g>
				<g>
					<path class="st0" d="M19.5,8.9c0,0-0.1,0-0.2,0v0c0.1,0,0.2,0,0.3,0c0.1,0,0.2,0,0.3,0c-0.1,0-0.2,0.1-0.3,0.1
						c-0.1,0-0.2,0-0.3,0v0C19.4,8.9,19.5,8.9,19.5,8.9z"/>
				</g>
			</g>
		</g>
		<g>
			<g>
				<g>
					<path class="st0" d="M20,11.2c-0.2,0-0.5,0-0.7,0s-0.5,0-0.7,0c0.2,0,0.5,0,0.7,0C19.5,11.1,19.8,11.2,20,11.2z"/>
				</g>
			</g>
		</g>
		<g>
			<g>
				<g>
					<path class="st0" d="M19.9,12.1c-0.1,0-0.2,0-0.4,0s-0.2,0-0.4,0c0.1,0,0.2,0,0.4,0C19.7,12,19.8,12,19.9,12.1z"/>
				</g>
			</g>
		</g>
		<g>
			<g>
				<ellipse class="st0" cx="6.7" cy="5.4" rx="0.3" ry="0.1"/>
			</g>
		</g>
		<g>
			<g>
				<g>
					<path class="st0" d="M6.1,5.3c0.2,0,0.4-0.1,0.5-0.1c0.1,0,0.2,0,0.3,0c0.1,0,0.2,0,0.3,0.1c-0.1,0-0.2,0-0.3,0
						c-0.1,0-0.2,0-0.3,0c-0.1,0-0.2,0-0.3,0L6.1,5.3z"/>
				</g>
			</g>
		</g>
		<g>
			<g>
				<g>
					<path class="st0" d="M6.9,5.6c-0.1,0-0.2,0.1-0.3,0.1c-0.1,0-0.2,0-0.3-0.1c0,0,0.1,0,0.2,0c0,0,0.1,0,0.2,0
						C6.7,5.6,6.8,5.6,6.9,5.6z"/>
				</g>
			</g>
		</g>
		<g>
			<g>
				<ellipse class="st0" cx="8.9" cy="2.8" rx="0.3" ry="0.1"/>
			</g>
		</g>
		<g>
			<g>
				<g>
					<path class="st0" d="M9.4,2.9C9.2,3,9,3,8.8,3C8.7,3,8.7,3,8.6,3C8.5,3,8.4,3,8.3,2.9c0.1,0,0.2,0,0.3,0c0.1,0,0.2,0,0.3,0
						C8.9,3,9,3,9.1,3L9.4,2.9z"/>
				</g>
			</g>
		</g>
		<g>
			<g>
				<g>
					<path class="st0" d="M8.6,2.7c0.1,0,0.2-0.1,0.3-0.1s0.2,0,0.3,0.1c0,0-0.1,0-0.2,0c0,0-0.1,0-0.2,0C8.8,2.7,8.7,2.7,8.6,2.7z"
						/>
				</g>
			</g>
		</g>
		<g>
			<g>
				<ellipse class="st0" cx="19.7" cy="2.5" rx="0.3" ry="0.1"/>
			</g>
		</g>
		<g>
			<g>
				<g>
					<path class="st0" d="M20.2,2.6c-0.2,0-0.4,0.1-0.5,0.1c-0.1,0-0.2,0-0.3,0c-0.1,0-0.2,0-0.3-0.1c0.1,0,0.2,0,0.3,0
						c0.1,0,0.2,0,0.3,0s0.2,0,0.3,0L20.2,2.6z"/>
				</g>
			</g>
		</g>
		<g>
			<g>
				<g>
					<path class="st0" d="M19.4,2.3c0.1,0,0.2-0.1,0.3-0.1s0.2,0,0.3,0.1c0,0-0.1,0-0.2,0c0,0-0.1,0-0.2,0
						C19.6,2.3,19.5,2.3,19.4,2.3z"/>
				</g>
			</g>
		</g>
		<g>
			<g>
				<ellipse class="st0" cx="19.3" cy="5.4" rx="0.3" ry="0.1"/>
			</g>
		</g>
		<g>
			<g>
				<g>
					<path class="st0" d="M19.9,5.5c-0.2,0-0.4,0.1-0.5,0.1c-0.1,0-0.2,0-0.3,0s-0.2,0-0.3-0.1c0.1,0,0.2,0,0.3,0c0.1,0,0.2,0,0.3,0
						c0.1,0,0.2,0,0.3,0L19.9,5.5z"/>
				</g>
			</g>
		</g>
		<g>
			<g>
				<g>
					<path class="st0" d="M19.1,5.2c0.1,0,0.2-0.1,0.3-0.1s0.2,0,0.3,0.1c0,0-0.1,0-0.2,0c0,0-0.1,0-0.2,0
						C19.3,5.2,19.2,5.2,19.1,5.2z"/>
				</g>
			</g>
		</g>
		<g>
			<g>
				<ellipse class="st0" cx="20.5" cy="10.8" rx="0.3" ry="0.1"/>
			</g>
		</g>
		<g>
			<g>
				<g>
					<path class="st0" d="M20,10.7c0.2,0,0.4-0.1,0.5-0.1c0.1,0,0.2,0,0.3,0c0.1,0,0.2,0,0.3,0.1c-0.1,0-0.2,0-0.3,0
						c-0.1,0-0.2,0-0.3,0s-0.2,0-0.3,0L20,10.7z"/>
				</g>
			</g>
		</g>
		<g>
			<g>
				<g>
					<path class="st0" d="M20.8,10.9c-0.1,0-0.2,0.1-0.3,0.1s-0.2,0-0.3-0.1c0,0,0.1,0,0.2,0c0,0,0.1,0,0.2,0
						C20.6,11,20.7,10.9,20.8,10.9z"/>
				</g>
			</g>
		</g>
	</g>
	<g>
		<g>
			<g>
				<path class="st0" d="M12.8,20.1c-0.7,0-1.3-0.1-2-0.3c-3.9-1.1-6.2-5.2-5.1-9.1c0.5-1.9,1.8-3.5,3.5-4.4c1.7-1,3.7-1.2,5.6-0.7
					c1.9,0.5,3.5,1.8,4.4,3.5c1,1.7,1.2,3.7,0.7,5.6C19,17.9,16,20,12.8,20.1z M12.8,6c-1.1,0-2.2,0.3-3.3,0.9
					c-1.6,0.9-2.7,2.3-3.2,4l0,0c-1,3.6,1.1,7.3,4.6,8.3c3.6,1,7.3-1.1,8.3-4.6c0.5-1.7,0.3-3.5-0.6-5.1c-0.9-1.6-2.3-2.7-4-3.2
					C14,6.1,13.4,6,12.8,6z M6.1,10.8L6.1,10.8L6.1,10.8z"/>
			</g>
		</g>
		<g>
			<g>
				<path class="st0" d="M12.8,14.4c-0.1,0-0.3,0-0.4-0.1c-0.9-0.2-1.4-1.2-1.1-2c0.2-0.9,1.2-1.4,2-1.1c0.9,0.2,1.4,1.2,1.1,2
					C14.2,13.9,13.5,14.4,12.8,14.4z M12.8,11.7c-0.4,0-0.8,0.3-1,0.7h0c-0.2,0.5,0.2,1.1,0.7,1.2c0.5,0.2,1.1-0.2,1.2-0.7
					c0.2-0.5-0.2-1.1-0.7-1.2C13,11.7,12.9,11.7,12.8,11.7z M11.5,12.4L11.5,12.4L11.5,12.4z"/>
			</g>
		</g>
		<g>
			<g>
				<path class="st1" d="M14.7,6C11,4.9,7.1,7.1,6.1,10.8s1.1,7.6,4.8,8.7s7.6-1.1,8.7-4.8S18.5,7,14.7,6z"/>
			</g>
			<g>
				<path class="st0" d="M12.8,20.1c-0.7,0-1.3-0.1-2-0.3c-3.9-1.1-6.2-5.2-5.1-9.1c1.1-3.9,5.2-6.2,9.1-5.1
					c3.9,1.1,6.2,5.2,5.1,9.1c-0.5,1.9-1.8,3.5-3.5,4.4C15.3,19.7,14.1,20.1,12.8,20.1z M12.8,6c-2.9,0-5.6,1.9-6.4,4.9
					C5.9,12.6,6.1,14.4,7,16c0.9,1.6,2.3,2.7,4,3.2s3.5,0.3,5.1-0.6c1.6-0.9,2.7-2.3,3.2-4c1-3.6-1.1-7.3-4.6-8.3
					C14,6.1,13.4,6,12.8,6z"/>
			</g>
		</g>
		<g>
			<g>
				<path class="st0" d="M12.8,17.8c-0.5,0-0.9-0.1-1.4-0.2c-2.7-0.8-4.3-3.6-3.5-6.3l0,0c0.4-1.3,1.2-2.4,2.4-3.1
					c1.2-0.7,2.6-0.8,3.9-0.5c2.7,0.8,4.3,3.6,3.5,6.3C17.1,16.3,15,17.8,12.8,17.8z M12.8,8.2c-0.8,0-1.5,0.2-2.2,0.6
					c-1,0.6-1.8,1.5-2.1,2.7l0,0c-0.7,2.4,0.7,4.8,3.1,5.5c2.4,0.7,4.8-0.7,5.5-3.1c0.7-2.4-0.7-4.8-3.1-5.5
					C13.6,8.3,13.2,8.2,12.8,8.2z M8.2,11.4L8.2,11.4L8.2,11.4z"/>
			</g>
		</g>
		<g>
			<g>
				<path class="st0" d="M13.1,13H7.9c-0.2,0-0.3-0.1-0.3-0.3s0.1-0.3,0.3-0.3h4.6V7.8c0-0.2,0.1-0.3,0.3-0.3c0.2,0,0.3,0.1,0.3,0.3
					V13z"/>
			</g>
		</g>
		<g>
			<g>
				<path class="st0" d="M12.8,17.9c-0.2,0-0.3-0.1-0.3-0.3v-5.2h5.2c0.2,0,0.3,0.1,0.3,0.3S17.9,13,17.7,13h-4.6v4.6
					C13.1,17.8,13,17.9,12.8,17.9z"/>
			</g>
		</g>
		<g>
			<g>
				<path class="st0" d="M9.4,16.5c-0.1,0-0.2,0-0.2-0.1c-0.1-0.1-0.1-0.3,0-0.5l3.2-3.2L9.1,9.5C9,9.3,9,9.1,9.1,9
					c0.1-0.1,0.3-0.1,0.5,0l3.7,3.7l-3.7,3.7C9.5,16.5,9.4,16.5,9.4,16.5z"/>
			</g>
		</g>
		<g>
			<g>
				<path class="st0" d="M16.3,16.5c-0.1,0-0.2,0-0.2-0.1l-3.7-3.7L16.1,9c0.1-0.1,0.3-0.1,0.5,0c0.1,0.1,0.1,0.3,0,0.5l-3.2,3.2
					l3.2,3.2c0.1,0.1,0.1,0.3,0,0.5C16.4,16.5,16.4,16.5,16.3,16.5z"/>
			</g>
		</g>
		<g>
			<g>
				<path class="st0" d="M13.1,13H7.9c-0.2,0-0.3-0.1-0.3-0.3s0.1-0.3,0.3-0.3h4.6V7.8c0-0.2,0.1-0.3,0.3-0.3c0.2,0,0.3,0.1,0.3,0.3
					V13z"/>
			</g>
		</g>
		<g>
			<g>
				<path class="st0" d="M12.8,17.9c-0.2,0-0.3-0.1-0.3-0.3v-5.2h5.2c0.2,0,0.3,0.1,0.3,0.3S17.9,13,17.7,13h-4.6v4.6
					C13.1,17.8,13,17.9,12.8,17.9z"/>
			</g>
		</g>
		<g>
			<g>
				<path class="st0" d="M12.8,14.3c-0.9,0-1.6-0.7-1.6-1.6s0.7-1.6,1.6-1.6c0.9,0,1.6,0.7,1.6,1.6S13.7,14.3,12.8,14.3z M12.8,11.7
					c-0.6,0-1,0.5-1,1c0,0.6,0.5,1,1,1c0.6,0,1-0.5,1-1C13.8,12.2,13.4,11.7,12.8,11.7z"/>
			</g>
		</g>
		<g>
			<g>
				<circle class="st1" cx="12.8" cy="12.7" r="0.7"/>
			</g>
		</g>
		<g>
			<g>
				<g>
					<g>
						<circle class="st0" cx="12.8" cy="6.7" r="0.3"/>
					</g>
				</g>
				<g>
					<g>
						<circle class="st0" cx="12.8" cy="18.7" r="0.3"/>
					</g>
				</g>
			</g>
			<g>
				<g>
					<g>
						<circle class="st0" cx="6.8" cy="12.7" r="0.3"/>
					</g>
				</g>
				<g>
					<g>
						<circle class="st0" cx="18.8" cy="12.7" r="0.3"/>
					</g>
				</g>
			</g>
			<g>
				<g>
					<g>
						<ellipse transform="matrix(0.7071 -0.7071 0.7071 0.7071 -3.4758 8.5628)" class="st0" cx="8.6" cy="8.5" rx="0.3" ry="0.3"/>
					</g>
				</g>
				<g>
					<g>
						
							<ellipse transform="matrix(0.7071 -0.7071 0.7071 0.7071 -6.9848 17.0296)" class="st0" cx="17.1" cy="16.9" rx="0.3" ry="0.3"/>
					</g>
				</g>
			</g>
			<g>
				<g>
					<g>
						
							<ellipse transform="matrix(0.7071 -0.7071 0.7071 0.7071 -9.4637 11.0417)" class="st0" cx="8.6" cy="16.9" rx="0.3" ry="0.3"/>
					</g>
				</g>
				<g>
					<g>
						
							<ellipse transform="matrix(0.7071 -0.7071 0.7071 0.7071 -0.9969 14.5507)" class="st0" cx="17.1" cy="8.5" rx="0.3" ry="0.3"/>
					</g>
				</g>
			</g>
		</g>
	</g>
	<g>
		<g>
			<g>
				<g>
					<path class="st1" d="M4.3,12.7H2.6V1.5c0-0.4,0.3-0.7,0.7-0.7h0.4c0.4,0,0.7,0.3,0.7,0.7C4.3,1.5,4.3,12.7,4.3,12.7z"/>
				</g>
				<g>
					<path class="st0" d="M4.7,13H2.3V1.5c0-0.6,0.4-1,1-1h0.4c0.6,0,1,0.4,1,1V13z M2.9,12.4H4V1.5c0-0.2-0.2-0.4-0.4-0.4H3.3
						c-0.2,0-0.4,0.2-0.4,0.4V12.4z"/>
				</g>
			</g>
			<g>
				<g>
					<path class="st1" d="M23.1,12.7h-1.8V1.5c0-0.4,0.3-0.7,0.7-0.7h0.4c0.4,0,0.7,0.3,0.7,0.7V12.7z"/>
				</g>
				<g>
					<path class="st0" d="M23.4,13H21V1.5c0-0.6,0.4-1,1-1h0.4c0.6,0,1,0.4,1,1V13z M21.6,12.4h1.1V1.5c0-0.2-0.2-0.4-0.4-0.4H22
						c-0.2,0-0.4,0.2-0.4,0.4V12.4z"/>
				</g>
			</g>
		</g>
		<g>
			<g>
				<g>
					<circle class="st0" cx="3.5" cy="3" r="0.3"/>
				</g>
			</g>
			<g>
				<g>
					<circle class="st0" cx="3.5" cy="5.8" r="0.3"/>
				</g>
			</g>
			<g>
				<g>
					<circle class="st0" cx="3.5" cy="8.5" r="0.3"/>
				</g>
			</g>
			<g>
				<g>
					<circle class="st0" cx="3.5" cy="11.3" r="0.3"/>
				</g>
			</g>
		</g>
		<g>
			<g>
				<g>
					<circle class="st0" cx="22.2" cy="3" r="0.3"/>
				</g>
			</g>
			<g>
				<g>
					<circle class="st0" cx="22.2" cy="5.8" r="0.3"/>
				</g>
			</g>
			<g>
				<g>
					<circle class="st0" cx="22.2" cy="8.5" r="0.3"/>
				</g>
			</g>
			<g>
				<g>
					<circle class="st0" cx="22.2" cy="11.3" r="0.3"/>
				</g>
			</g>
		</g>
	</g>
	<g>
		<g>
			<path class="st3" d="M28,9.9"/>
		</g>
	</g>
</g>
</svg>
